<mxfile host="Electron" modified="2022-09-17T11:05:40.818Z" agent="5.0 (Windows NT 10.0; Win64; x64) AppleWebKit/537.36 (KHTML, like Gecko) draw.io/20.3.0 Chrome/104.0.5112.114 Electron/20.1.3 Safari/537.36" etag="KR5htaorwEFJb_EQw7uy" compressed="false" version="20.3.0" type="device">
  <diagram id="pPTuWQo4xUetmgeW9kVm" name="Page-1">
    <mxGraphModel dx="1102" dy="875" grid="1" gridSize="10" guides="1" tooltips="1" connect="1" arrows="1" fold="1" page="1" pageScale="1" pageWidth="850" pageHeight="1100" math="0" shadow="0">
      <root>
        <mxCell id="0" />
        <mxCell id="1" parent="0" />
        <mxCell id="IUzeVXUFsIX4jGIq4vgj-1" value="" style="verticalLabelPosition=bottom;html=1;verticalAlign=top;align=center;strokeColor=none;fillColor=#999999;shape=mxgraph.azure.user;" parent="1" vertex="1">
          <mxGeometry x="110" y="110" width="47.5" height="50" as="geometry" />
        </mxCell>
        <mxCell id="IUzeVXUFsIX4jGIq4vgj-2" value="" style="verticalLabelPosition=bottom;html=1;verticalAlign=top;align=center;strokeColor=none;fillColor=#999999;shape=mxgraph.azure.user;" parent="1" vertex="1">
          <mxGeometry x="110" y="240" width="47.5" height="50" as="geometry" />
        </mxCell>
        <mxCell id="IUzeVXUFsIX4jGIq4vgj-3" value="" style="verticalLabelPosition=bottom;html=1;verticalAlign=top;align=center;strokeColor=none;fillColor=#999999;shape=mxgraph.azure.user;" parent="1" vertex="1">
          <mxGeometry x="110" y="370" width="47.5" height="50" as="geometry" />
        </mxCell>
        <mxCell id="IUzeVXUFsIX4jGIq4vgj-4" value="&lt;font color=&quot;#757575&quot; style=&quot;font-size: 22px;&quot;&gt;Customers&lt;/font&gt;" style="text;html=1;resizable=0;autosize=1;align=center;verticalAlign=middle;points=[];fillColor=none;strokeColor=none;rounded=0;" parent="1" vertex="1">
          <mxGeometry x="87.75" y="40" width="130" height="40" as="geometry" />
        </mxCell>
        <mxCell id="IUzeVXUFsIX4jGIq4vgj-5" value="&lt;font color=&quot;#757575&quot; style=&quot;font-size: 22px;&quot;&gt;Topics, Issues, Tasks&lt;/font&gt;" style="text;html=1;resizable=0;autosize=1;align=center;verticalAlign=middle;points=[];fillColor=none;strokeColor=none;rounded=0;" parent="1" vertex="1">
          <mxGeometry x="325" y="40" width="230" height="40" as="geometry" />
        </mxCell>
        <mxCell id="IUzeVXUFsIX4jGIq4vgj-6" value="&lt;font color=&quot;#757575&quot; style=&quot;font-size: 22px;&quot;&gt;Executors&lt;/font&gt;" style="text;html=1;resizable=0;autosize=1;align=center;verticalAlign=middle;points=[];fillColor=none;strokeColor=none;rounded=0;" parent="1" vertex="1">
          <mxGeometry x="670" y="40" width="120" height="40" as="geometry" />
        </mxCell>
        <mxCell id="IUzeVXUFsIX4jGIq4vgj-8" value="" style="outlineConnect=0;dashed=0;verticalLabelPosition=bottom;verticalAlign=top;align=center;html=1;shape=mxgraph.aws3.user;fillColor=#C49F7B;gradientColor=none;fontSize=24;fontColor=#757575;" parent="1" vertex="1">
          <mxGeometry x="710.73" y="110" width="38.54" height="50" as="geometry" />
        </mxCell>
        <mxCell id="IUzeVXUFsIX4jGIq4vgj-9" value="" style="outlineConnect=0;dashed=0;verticalLabelPosition=bottom;verticalAlign=top;align=center;html=1;shape=mxgraph.aws3.user;fillColor=#C49F7B;gradientColor=none;fontSize=24;fontColor=#757575;" parent="1" vertex="1">
          <mxGeometry x="710.73" y="240" width="38.54" height="50" as="geometry" />
        </mxCell>
        <mxCell id="IUzeVXUFsIX4jGIq4vgj-10" value="" style="outlineConnect=0;dashed=0;verticalLabelPosition=bottom;verticalAlign=top;align=center;html=1;shape=mxgraph.aws3.user;fillColor=#BF9B77;gradientColor=none;fontSize=24;fontColor=#757575;" parent="1" vertex="1">
          <mxGeometry x="710.73" y="370" width="38.54" height="50" as="geometry" />
        </mxCell>
        <mxCell id="IUzeVXUFsIX4jGIq4vgj-11" value="" style="rounded=0;whiteSpace=wrap;html=1;fontSize=24;fontColor=#757575;fillColor=#FFFFFF;strokeColor=#454545;" parent="1" vertex="1">
          <mxGeometry x="380" y="105" width="120" height="60" as="geometry" />
        </mxCell>
        <mxCell id="IUzeVXUFsIX4jGIq4vgj-12" value="" style="rounded=0;whiteSpace=wrap;html=1;fontSize=24;fontColor=#757575;fillColor=#FFFFFF;strokeColor=#454545;" parent="1" vertex="1">
          <mxGeometry x="380" y="235" width="120" height="60" as="geometry" />
        </mxCell>
        <mxCell id="IUzeVXUFsIX4jGIq4vgj-13" value="" style="rounded=0;whiteSpace=wrap;html=1;fontSize=24;fontColor=#757575;fillColor=#FFFFFF;strokeColor=#454545;" parent="1" vertex="1">
          <mxGeometry x="380" y="365" width="120" height="60" as="geometry" />
        </mxCell>
        <mxCell id="IUzeVXUFsIX4jGIq4vgj-14" value="" style="curved=1;endArrow=classic;html=1;rounded=0;fontSize=24;fontColor=#757575;strokeColor=#67AB9F;" parent="1" edge="1">
          <mxGeometry width="50" height="50" relative="1" as="geometry">
            <mxPoint x="216" y="106.66666666666669" as="sourcePoint" />
            <mxPoint x="370" y="140" as="targetPoint" />
            <Array as="points">
              <mxPoint x="270" y="100" />
              <mxPoint x="350" y="120" />
            </Array>
          </mxGeometry>
        </mxCell>
        <mxCell id="IUzeVXUFsIX4jGIq4vgj-15" value="&lt;font color=&quot;#67ab9f&quot; style=&quot;font-size: 14px;&quot;&gt;E-mail&lt;/font&gt;" style="text;html=1;strokeColor=none;fillColor=none;align=center;verticalAlign=middle;whiteSpace=wrap;rounded=0;fontSize=24;fontColor=#757575;fontStyle=1" parent="1" vertex="1">
          <mxGeometry x="165" y="99" width="50" height="10" as="geometry" />
        </mxCell>
        <mxCell id="IUzeVXUFsIX4jGIq4vgj-16" value="" style="curved=1;endArrow=classic;html=1;rounded=0;strokeColor=#B5739D;fontSize=14;fontColor=#67AB9F;exitX=0.13;exitY=-0.225;exitDx=0;exitDy=0;exitPerimeter=0;" parent="1" source="IUzeVXUFsIX4jGIq4vgj-19" edge="1">
          <mxGeometry width="50" height="50" relative="1" as="geometry">
            <mxPoint x="160" y="160" as="sourcePoint" />
            <mxPoint x="370" y="110" as="targetPoint" />
            <Array as="points">
              <mxPoint x="260" y="170" />
              <mxPoint x="340" y="110" />
            </Array>
          </mxGeometry>
        </mxCell>
        <mxCell id="IUzeVXUFsIX4jGIq4vgj-19" value="&lt;font color=&quot;#b5739d&quot; style=&quot;font-size: 14px;&quot;&gt;Calls&lt;/font&gt;" style="text;html=1;strokeColor=none;fillColor=none;align=center;verticalAlign=middle;whiteSpace=wrap;rounded=0;fontSize=24;fontColor=#757575;fontStyle=1" parent="1" vertex="1">
          <mxGeometry x="161" y="165" width="50" height="10" as="geometry" />
        </mxCell>
        <mxCell id="IUzeVXUFsIX4jGIq4vgj-20" value="" style="curved=1;endArrow=classic;html=1;rounded=0;strokeColor=#7EA6E0;fontSize=14;fontColor=#B5739D;" parent="1" edge="1">
          <mxGeometry width="50" height="50" relative="1" as="geometry">
            <mxPoint x="170" y="250" as="sourcePoint" />
            <mxPoint x="370" y="280" as="targetPoint" />
            <Array as="points">
              <mxPoint x="230" y="240" />
              <mxPoint x="330" y="260" />
            </Array>
          </mxGeometry>
        </mxCell>
        <mxCell id="IUzeVXUFsIX4jGIq4vgj-21" value="&lt;font color=&quot;#7ea6e0&quot; style=&quot;font-size: 14px;&quot;&gt;Slack&lt;/font&gt;" style="text;html=1;strokeColor=none;fillColor=none;align=center;verticalAlign=middle;whiteSpace=wrap;rounded=0;fontSize=24;fontColor=#757575;fontStyle=1" parent="1" vertex="1">
          <mxGeometry x="163" y="227" width="50" height="10" as="geometry" />
        </mxCell>
        <mxCell id="IUzeVXUFsIX4jGIq4vgj-22" value="" style="curved=1;endArrow=classic;html=1;rounded=0;strokeColor=#89BD6C;fontSize=14;fontColor=#7EA6E0;" parent="1" edge="1">
          <mxGeometry width="50" height="50" relative="1" as="geometry">
            <mxPoint x="170" y="290" as="sourcePoint" />
            <mxPoint x="370" y="240" as="targetPoint" />
            <Array as="points">
              <mxPoint x="240" y="290" />
              <mxPoint x="340" y="260" />
            </Array>
          </mxGeometry>
        </mxCell>
        <mxCell id="IUzeVXUFsIX4jGIq4vgj-23" value="&lt;font color=&quot;#82b366&quot; style=&quot;font-size: 14px;&quot;&gt;Forum&lt;/font&gt;" style="text;html=1;strokeColor=none;fillColor=none;align=center;verticalAlign=middle;whiteSpace=wrap;rounded=0;fontSize=24;fontColor=#757575;fontStyle=1" parent="1" vertex="1">
          <mxGeometry x="166" y="292" width="50" height="10" as="geometry" />
        </mxCell>
        <mxCell id="IUzeVXUFsIX4jGIq4vgj-24" value="" style="curved=1;endArrow=classic;html=1;rounded=0;strokeColor=#89BD6C;fontSize=14;fontColor=#00CC00;" parent="1" edge="1">
          <mxGeometry width="50" height="50" relative="1" as="geometry">
            <mxPoint x="270" y="280" as="sourcePoint" />
            <mxPoint x="370" y="160" as="targetPoint" />
            <Array as="points">
              <mxPoint x="310" y="270" />
              <mxPoint x="320" y="180" />
            </Array>
          </mxGeometry>
        </mxCell>
        <mxCell id="IUzeVXUFsIX4jGIq4vgj-25" value="" style="curved=1;endArrow=classic;html=1;rounded=0;strokeColor=#7EA6E0;fontSize=14;fontColor=#82B366;" parent="1" edge="1">
          <mxGeometry width="50" height="50" relative="1" as="geometry">
            <mxPoint x="170" y="370" as="sourcePoint" />
            <mxPoint x="370" y="400" as="targetPoint" />
            <Array as="points">
              <mxPoint x="220" y="360" />
              <mxPoint x="320" y="370" />
            </Array>
          </mxGeometry>
        </mxCell>
        <mxCell id="IUzeVXUFsIX4jGIq4vgj-26" value="&lt;font color=&quot;#7ea6e0&quot; style=&quot;font-size: 14px;&quot;&gt;Slack&lt;/font&gt;" style="text;html=1;strokeColor=none;fillColor=none;align=center;verticalAlign=middle;whiteSpace=wrap;rounded=0;fontSize=24;fontColor=#757575;fontStyle=1" parent="1" vertex="1">
          <mxGeometry x="163" y="348" width="50" height="10" as="geometry" />
        </mxCell>
        <mxCell id="IUzeVXUFsIX4jGIq4vgj-28" value="" style="curved=1;endArrow=classic;html=1;rounded=0;strokeColor=#B5739D;fontSize=14;fontColor=#67AB9F;" parent="1" edge="1">
          <mxGeometry width="50" height="50" relative="1" as="geometry">
            <mxPoint x="170" y="400" as="sourcePoint" />
            <mxPoint x="371" y="380" as="targetPoint" />
            <Array as="points">
              <mxPoint x="260" y="410" />
              <mxPoint x="341" y="380" />
            </Array>
          </mxGeometry>
        </mxCell>
        <mxCell id="IUzeVXUFsIX4jGIq4vgj-29" value="&lt;font color=&quot;#b5739d&quot; style=&quot;font-size: 14px;&quot;&gt;Calls&lt;/font&gt;" style="text;html=1;strokeColor=none;fillColor=none;align=center;verticalAlign=middle;whiteSpace=wrap;rounded=0;fontSize=24;fontColor=#757575;fontStyle=1" parent="1" vertex="1">
          <mxGeometry x="161" y="382" width="50" height="10" as="geometry" />
        </mxCell>
        <mxCell id="IUzeVXUFsIX4jGIq4vgj-30" value="" style="curved=1;endArrow=classic;html=1;rounded=0;strokeColor=#B5739D;fontSize=14;fontColor=#00CC00;" parent="1" edge="1">
          <mxGeometry width="50" height="50" relative="1" as="geometry">
            <mxPoint x="260" y="403" as="sourcePoint" />
            <mxPoint x="370" y="290" as="targetPoint" />
            <Array as="points">
              <mxPoint x="310" y="390" />
              <mxPoint x="330" y="310" />
            </Array>
          </mxGeometry>
        </mxCell>
        <mxCell id="IUzeVXUFsIX4jGIq4vgj-31" value="" style="curved=1;endArrow=classic;html=1;rounded=0;strokeColor=#89BD6C;fontSize=14;fontColor=#7EA6E0;" parent="1" edge="1">
          <mxGeometry width="50" height="50" relative="1" as="geometry">
            <mxPoint x="170" y="430" as="sourcePoint" />
            <mxPoint x="370" y="420" as="targetPoint" />
            <Array as="points">
              <mxPoint x="240" y="440" />
              <mxPoint x="340" y="410" />
            </Array>
          </mxGeometry>
        </mxCell>
        <mxCell id="IUzeVXUFsIX4jGIq4vgj-32" value="&lt;font color=&quot;#82b366&quot; style=&quot;font-size: 14px;&quot;&gt;Forum&lt;/font&gt;" style="text;html=1;strokeColor=none;fillColor=none;align=center;verticalAlign=middle;whiteSpace=wrap;rounded=0;fontSize=24;fontColor=#757575;fontStyle=1" parent="1" vertex="1">
          <mxGeometry x="166" y="416" width="50" height="10" as="geometry" />
        </mxCell>
        <mxCell id="IUzeVXUFsIX4jGIq4vgj-33" value="&lt;font color=&quot;#999999&quot;&gt;History of communication&lt;/font&gt;" style="text;html=1;strokeColor=none;fillColor=none;align=center;verticalAlign=middle;whiteSpace=wrap;rounded=0;fontSize=14;fontColor=#82B366;" parent="1" vertex="1">
          <mxGeometry x="405" y="120" width="70" height="30" as="geometry" />
        </mxCell>
        <mxCell id="IUzeVXUFsIX4jGIq4vgj-34" value="&lt;font color=&quot;#999999&quot;&gt;History of communication&lt;/font&gt;" style="text;html=1;strokeColor=none;fillColor=none;align=center;verticalAlign=middle;whiteSpace=wrap;rounded=0;fontSize=14;fontColor=#82B366;" parent="1" vertex="1">
          <mxGeometry x="405" y="250" width="70" height="30" as="geometry" />
        </mxCell>
        <mxCell id="IUzeVXUFsIX4jGIq4vgj-35" value="&lt;font color=&quot;#999999&quot;&gt;History of communication&lt;/font&gt;" style="text;html=1;strokeColor=none;fillColor=none;align=center;verticalAlign=middle;whiteSpace=wrap;rounded=0;fontSize=14;fontColor=#82B366;" parent="1" vertex="1">
          <mxGeometry x="405" y="380" width="70" height="30" as="geometry" />
        </mxCell>
        <mxCell id="IUzeVXUFsIX4jGIq4vgj-37" value="" style="endArrow=classic;html=1;rounded=0;strokeColor=#AD8C6C;fontSize=14;fontColor=#999999;" parent="1" edge="1">
          <mxGeometry width="50" height="50" relative="1" as="geometry">
            <mxPoint x="690" y="120" as="sourcePoint" />
            <mxPoint x="520" y="120" as="targetPoint" />
          </mxGeometry>
        </mxCell>
        <mxCell id="IUzeVXUFsIX4jGIq4vgj-38" value="&lt;font color=&quot;#ad8c6c&quot;&gt;&lt;b&gt;Answers&lt;/b&gt;&lt;/font&gt;" style="text;html=1;strokeColor=none;fillColor=none;align=center;verticalAlign=middle;whiteSpace=wrap;rounded=0;fontSize=14;fontColor=#999999;" parent="1" vertex="1">
          <mxGeometry x="570" y="90" width="60" height="30" as="geometry" />
        </mxCell>
        <mxCell id="IUzeVXUFsIX4jGIq4vgj-41" value="" style="endArrow=classic;html=1;rounded=0;strokeColor=#AD8C6C;fontSize=14;fontColor=#999999;" parent="1" edge="1">
          <mxGeometry width="50" height="50" relative="1" as="geometry">
            <mxPoint x="691" y="150" as="sourcePoint" />
            <mxPoint x="521" y="150" as="targetPoint" />
          </mxGeometry>
        </mxCell>
        <mxCell id="IUzeVXUFsIX4jGIq4vgj-52" value="&lt;b style=&quot;&quot;&gt;Process1&lt;/b&gt;" style="text;html=1;strokeColor=none;fillColor=none;align=center;verticalAlign=middle;whiteSpace=wrap;rounded=0;fontSize=14;fontColor=#999999;" parent="1" vertex="1">
          <mxGeometry x="412" y="171" width="60" height="15" as="geometry" />
        </mxCell>
        <mxCell id="IUzeVXUFsIX4jGIq4vgj-53" value="&lt;b style=&quot;&quot;&gt;Process 2&lt;/b&gt;" style="text;html=1;strokeColor=none;fillColor=none;align=center;verticalAlign=middle;whiteSpace=wrap;rounded=0;fontSize=14;fontColor=#999999;" parent="1" vertex="1">
          <mxGeometry x="403" y="302" width="78" height="15" as="geometry" />
        </mxCell>
        <mxCell id="IUzeVXUFsIX4jGIq4vgj-54" value="&lt;b style=&quot;&quot;&gt;Process 3&lt;/b&gt;" style="text;html=1;strokeColor=none;fillColor=none;align=center;verticalAlign=middle;whiteSpace=wrap;rounded=0;fontSize=14;fontColor=#999999;" parent="1" vertex="1">
          <mxGeometry x="403" y="431" width="78" height="15" as="geometry" />
        </mxCell>
        <mxCell id="dtk2DqJnfpC3ghuT96d0-2" value="&lt;font color=&quot;#ad8c6c&quot;&gt;&lt;b&gt;Notes&lt;/b&gt;&lt;/font&gt;" style="text;html=1;strokeColor=none;fillColor=none;align=center;verticalAlign=middle;whiteSpace=wrap;rounded=0;fontSize=14;fontColor=#999999;" vertex="1" parent="1">
          <mxGeometry x="570" y="120" width="60" height="30" as="geometry" />
        </mxCell>
        <mxCell id="dtk2DqJnfpC3ghuT96d0-3" value="" style="endArrow=classic;html=1;rounded=0;strokeColor=#AD8C6C;fontSize=14;fontColor=#999999;" edge="1" parent="1">
          <mxGeometry width="50" height="50" relative="1" as="geometry">
            <mxPoint x="690" y="249" as="sourcePoint" />
            <mxPoint x="520" y="249" as="targetPoint" />
          </mxGeometry>
        </mxCell>
        <mxCell id="dtk2DqJnfpC3ghuT96d0-4" value="&lt;font color=&quot;#ad8c6c&quot;&gt;&lt;b&gt;Answers&lt;/b&gt;&lt;/font&gt;" style="text;html=1;strokeColor=none;fillColor=none;align=center;verticalAlign=middle;whiteSpace=wrap;rounded=0;fontSize=14;fontColor=#999999;" vertex="1" parent="1">
          <mxGeometry x="570" y="219" width="60" height="30" as="geometry" />
        </mxCell>
        <mxCell id="dtk2DqJnfpC3ghuT96d0-5" value="" style="endArrow=classic;html=1;rounded=0;strokeColor=#AD8C6C;fontSize=14;fontColor=#999999;" edge="1" parent="1">
          <mxGeometry width="50" height="50" relative="1" as="geometry">
            <mxPoint x="691" y="279" as="sourcePoint" />
            <mxPoint x="521" y="279" as="targetPoint" />
          </mxGeometry>
        </mxCell>
        <mxCell id="dtk2DqJnfpC3ghuT96d0-6" value="&lt;font color=&quot;#ad8c6c&quot;&gt;&lt;b&gt;Notes&lt;/b&gt;&lt;/font&gt;" style="text;html=1;strokeColor=none;fillColor=none;align=center;verticalAlign=middle;whiteSpace=wrap;rounded=0;fontSize=14;fontColor=#999999;" vertex="1" parent="1">
          <mxGeometry x="570" y="249" width="60" height="30" as="geometry" />
        </mxCell>
        <mxCell id="dtk2DqJnfpC3ghuT96d0-7" value="" style="endArrow=classic;html=1;rounded=0;strokeColor=#AD8C6C;fontSize=14;fontColor=#999999;" edge="1" parent="1">
          <mxGeometry width="50" height="50" relative="1" as="geometry">
            <mxPoint x="690" y="378" as="sourcePoint" />
            <mxPoint x="520" y="378" as="targetPoint" />
          </mxGeometry>
        </mxCell>
        <mxCell id="dtk2DqJnfpC3ghuT96d0-8" value="&lt;font color=&quot;#ad8c6c&quot;&gt;&lt;b&gt;Answers&lt;/b&gt;&lt;/font&gt;" style="text;html=1;strokeColor=none;fillColor=none;align=center;verticalAlign=middle;whiteSpace=wrap;rounded=0;fontSize=14;fontColor=#999999;" vertex="1" parent="1">
          <mxGeometry x="570" y="348" width="60" height="30" as="geometry" />
        </mxCell>
        <mxCell id="dtk2DqJnfpC3ghuT96d0-9" value="" style="endArrow=classic;html=1;rounded=0;strokeColor=#AD8C6C;fontSize=14;fontColor=#999999;" edge="1" parent="1">
          <mxGeometry width="50" height="50" relative="1" as="geometry">
            <mxPoint x="691" y="408" as="sourcePoint" />
            <mxPoint x="521" y="408" as="targetPoint" />
          </mxGeometry>
        </mxCell>
        <mxCell id="dtk2DqJnfpC3ghuT96d0-10" value="&lt;font color=&quot;#ad8c6c&quot;&gt;&lt;b&gt;Notes&lt;/b&gt;&lt;/font&gt;" style="text;html=1;strokeColor=none;fillColor=none;align=center;verticalAlign=middle;whiteSpace=wrap;rounded=0;fontSize=14;fontColor=#999999;" vertex="1" parent="1">
          <mxGeometry x="570" y="378" width="60" height="30" as="geometry" />
        </mxCell>
      </root>
    </mxGraphModel>
  </diagram>
</mxfile>
